<svg xmlns="http://www.w3.org/2000/svg" width="1579" height="429" viewBox="0 0 1579 429"><g transform="translate(-148 -1205)"><path d="M777.2,307.782v-193H608.658a27.806,27.806,0,0,1-12.05,8.818L416.792,193.082a28,28,0,0,1-20.184,0L216.792,123.6a27.523,27.523,0,0,1-13.966-11.618H30v186.2a15,15,0,0,1-30,0V96.982a15,15,0,0,1,15-15H203.451a27.6,27.6,0,0,1,13.341-10.617L396.608,1.882a28,28,0,0,1,20.184,0L596.608,71.365a27.426,27.426,0,0,1,14.949,13.418H792.2a15,15,0,0,1,15,15v208a15,15,0,0,1-30,0ZM240.474,94.376a15.132,15.132,0,0,1-.193,6.139L406.7,164.821,576,99.4a14.985,14.985,0,0,1,.537-3.627L406.7,30.144Z" transform="translate(556.4 1311.218)" fill="#fff" opacity="0.82"/><path d="M38,91V68H15a15,15,0,0,1,0-30H38V15a15,15,0,0,1,30,0V38H91a15,15,0,1,1,0,30H68V91a15,15,0,1,1-30,0Z" transform="translate(148 1424)" fill="#fff" opacity="0.8"/><circle cx="27.5" cy="27.5" r="27.5" transform="translate(1672 1205)" fill="#fff" opacity="0.81"/></g></svg>