<svg xmlns="http://www.w3.org/2000/svg" xmlns:xlink="http://www.w3.org/1999/xlink" width="1504" height="954.667" viewBox="0 0 1504 954.667"><defs><clipPath id="a"><path d="M1791.911-21.6V877.6s-474.731,124.8-692.89,0,7.248-344-179.746-499.2S493.1,356.8,351.048,256.8s0-278.4,0-278.4Z" transform="translate(156.089)" fill="#2c98eb"/></clipPath></defs><g transform="translate(-444 21.6)"><path d="M1791.911-21.6V877.6s-474.731,124.8-692.89,0,7.248-344-179.746-499.2S493.1,356.8,351.048,256.8s0-278.4,0-278.4Z" transform="translate(156.089)" fill="#2c98eb"/><g clip-path="url(#a)"><path d="M-412.713,336.434-576.676,480.958-740.639,336.434h163.963V-111.593H-912.8V-444h672.248v332.407H-412.713" transform="translate(1714.832 45.276) rotate(-49)" fill="none" stroke="#fff" stroke-linecap="round" stroke-linejoin="round" stroke-width="30" opacity="0.8"/></g><circle cx="27.5" cy="27.5" r="27.5" transform="translate(566 37)" fill="#fff" opacity="0.81"/><circle cx="27.5" cy="27.5" r="27.5" transform="translate(1726 387)" fill="#fff" opacity="0.81"/><circle cx="27.5" cy="27.5" r="27.5" transform="translate(1291 665)" fill="#fff" opacity="0.81"/><path d="M66,69.4v-23H43a15,15,0,1,1,0-30H66v-23a15,15,0,0,1,15-15,15,15,0,0,1,15,15v23h23a15,15,0,1,1,0,30H96v23a15,15,0,0,1-30,0Z" transform="translate(698.5 144.1)" fill="#fff" opacity="0.8"/></g></svg>